# xmcd
#
# Track frame offsets: 
#        150
#        19923
#        34283
#        51542
#        74725
#        85947
#        104862
#        119022
#        136317
#        150167
#        164389
#
# Disc length: 2385 seconds
#
# Revision: 0
# Processed by: cddbd v1.5.2PL0 Copyright (c) Steve Scherf et al.
# Submitted via: ExactAudioCopy v1.0b3
#
DISCID=a2094f0b
DTITLE=Various Artist - Long Gone Whistle - The Songs Of Maurice Fraw
DTITLE=ley [CD2]
DYEAR=2010
DGENRE=Rock
TTITLE0=Megan Washington - Given Everything
TTITLE1=Clare Bowditch and Henry Wagons - Farmer's Song
TTITLE2=Don Walker with Working Class Ringos - Goodnight Matron, Hello
TTITLE2=Jesus
TTITLE3=The Drones - Long Gone Whistle
TTITLE4=Dan Kelly - Cool Water
TTITLE5=Renee Geyer and Spencer Jones - You I Want
TTITLE6=Mick Thomas - Let Nobody Be Your Daddy
TTITLE7=The Kill Devil Hills - Bad Wine and Women
TTITLE8=Billy Pommer Jr - Jesus On The Mainland
TTITLE9=Dan Sultan Band - Queen Stone
TTITLE10=The Panics - No More Tears
EXTD=
EXTT0=
EXTT1=
EXTT2=
EXTT3=
EXTT4=
EXTT5=
EXTT6=
EXTT7=
EXTT8=
EXTT9=
EXTT10=
PLAYORDER=
